<?xml version="1.0" encoding="utf-8"?>
<!-- Generator: Adobe Illustrator 16.0.0, SVG Export Plug-In . SVG Version: 6.00 Build 0)  -->
<!DOCTYPE svg PUBLIC "-//W3C//DTD SVG 1.1//EN" "http://www.w3.org/Graphics/SVG/1.1/DTD/svg11.dtd">
<svg version="1.1" id="Layer_1" xmlns="http://www.w3.org/2000/svg" xmlns:xlink="http://www.w3.org/1999/xlink" x="0px" y="0px"
	 width="427px" height="426px" viewBox="0 0 427 426" enable-background="new 0 0 427 426" xml:space="preserve">
<g>
	<path fill-rule="evenodd" clip-rule="evenodd" fill="#8EC5EB" d="M308.969,380.221c-8.978,0.203-17.266-1.756-25.432-4.16
		c-1.967-0.579-2.5,0.066-3.193,1.418c-3.371,6.568-7.432,12.68-12.383,18.162c-7.736,8.565-16.957,14.979-27.733,19.209
		c-8.851,3.476-18.033,5.404-27.474,5.228c-16.453-0.306-31.224-5.612-44.234-15.874c-9.428-7.437-17.168-16.151-22.193-27.129
		c-0.587-1.281-1.097-1.513-2.573-1.069c-10.347,3.106-20.916,5.191-31.744,4.049c-10.206-1.077-19.927-3.997-28.884-9.273
		c-4.988-2.938-9.846-6.079-14.02-10.024c-6.523-6.166-11.963-13.267-16.212-21.225c-4.3-8.053-7.134-16.673-8.358-25.635
		c-0.942-6.896-1.479-13.953-0.443-20.96c0.256-1.733-1.016-2.329-2.087-3.055c-5.237-3.546-10.048-7.595-14.434-12.147
		c-7.177-7.451-12.372-16.16-16.308-25.672c-5.144-12.43-6.222-25.473-5.25-38.673c0.546-7.419,2.643-14.649,5.471-21.552
		c4.165-10.164,9.47-19.629,17.55-27.335c4.979-4.75,10.402-8.872,16.475-12.057c1.947-1.021,2.227-2.223,1.869-4.043
		c-0.547-2.778-1.594-5.412-2.155-8.202c-2.53-12.557-2.136-25.033,1.033-37.382c5.574-21.722,17.788-38.575,37.356-49.827
		c8.732-5.022,18.166-7.732,28.217-8.749c10.802-1.092,21.222,0.19,31.412,3.72c1.613,0.559,2.429,0.409,3.243-1.265
		c6.47-13.285,16.345-23.439,28.758-31.333c11.423-7.264,23.862-10.403,37.321-10.617c15.91-0.252,30.34,4.025,43.347,13.058
		c10.269,7.131,17.688,16.807,23.775,27.576c1.854,3.281,1.755,3.232,5.296,2.151c23.154-7.071,44.765-4.269,64.783,9.82
		c12.496,8.795,21.381,20.416,27.335,34.258c3.539,8.228,5.718,16.918,6.271,25.977c0.674,11.024-1,21.685-4.455,32.096
		c-0.607,1.833,0.614,1.983,1.555,2.429c6.741,3.197,12.582,7.667,17.763,12.944c9.017,9.184,15.989,19.708,19.349,32.262
		c3.158,11.808,4.581,23.718,2.713,36.033c-1.896,12.494-5.817,24.068-12.922,34.493c-6.11,8.964-13.465,16.735-23.037,22.087
		c-2.527,1.413-1.468,3.709-1.182,5.116c0.988,4.865,0.607,9.65,0.023,14.43c-1.154,9.45-3.564,18.549-7.814,27.154
		c-4.248,8.602-9.691,16.254-16.687,22.827c-8.323,7.823-17.782,13.792-28.63,17.393
		C323.113,379.152,315.959,380.395,308.969,380.221z M182.141,292.709c4.395,0.229,9.166-2.052,13.169-5.779
		c5.181-4.824,10.094-9.938,15.101-14.945c20.434-20.445,40.86-40.896,61.289-61.348c11.346-11.357,22.753-22.654,33.992-34.115
		c3.078-3.139,6.705-5.848,8.706-9.968c1.757-3.618,3.395-7.309,2.978-11.411c-0.615-6.063-3.389-10.984-7.93-15.18
		c-6.979-6.45-20.559-6.503-27.309,0.249c-4.572,4.574-9.141,9.154-13.717,13.727c-15.064,15.053-30.117,30.116-45.198,45.151
		c-13.464,13.426-26.993,26.787-40.397,40.271c-1.735,1.745-2.628,1.707-4.323-0.034c-10.173-10.448-20.454-20.79-30.739-31.129
		c-4.229-4.251-9.116-7.599-15.266-7.864c-9.602-0.416-16.645,3.871-21.04,12.506c-3.651,7.174-1.527,17.466,2.659,21.775
		c5.128,5.28,10.232,10.584,15.42,15.807c11.839,11.917,23.725,23.789,35.588,35.682
		C169.463,290.453,174.691,292.662,182.141,292.709z"/>
	<path fill-rule="evenodd" clip-rule="evenodd" fill="#FDFEFE" d="M182.141,292.709c-7.449-0.047-12.678-2.256-17.018-6.605
		c-11.863-11.893-23.749-23.765-35.588-35.682c-5.188-5.223-10.292-10.526-15.42-15.807c-4.187-4.31-6.311-14.602-2.659-21.775
		c4.396-8.635,11.438-12.922,21.04-12.506c6.149,0.266,11.037,3.613,15.266,7.864c10.285,10.339,20.566,20.681,30.739,31.129
		c1.695,1.741,2.588,1.779,4.323,0.034c13.404-13.484,26.934-26.846,40.397-40.271c15.081-15.035,30.134-30.099,45.198-45.151
		c4.576-4.573,9.145-9.152,13.717-13.727c6.75-6.752,20.329-6.699,27.309-0.249c4.541,4.196,7.314,9.116,7.93,15.18
		c0.417,4.103-1.221,7.793-2.978,11.411c-2.001,4.12-5.628,6.829-8.706,9.968c-11.239,11.461-22.646,22.758-33.992,34.115
		c-20.429,20.451-40.855,40.902-61.289,61.348c-5.007,5.008-9.92,10.121-15.101,14.945
		C191.307,290.657,186.535,292.938,182.141,292.709z"/>
</g>
</svg>
